# 3ds Max Wavefront OBJ Exporter v0.97b - (c)2007 guruware
# File Created: 16.01.2017 02:20:27

#
# object Door_L
#

v  0.03087 -0.01119 0.30240
v  -0.02326 -1.71808 0.38245
v  -0.02326 -0.03091 0.38079
v  0.03087 -1.71369 0.30160
v  0.05129 0.00070 0.22986
v  0.05129 -1.71013 0.23222
v  0.05686 0.01579 0.14690
v  0.05686 -1.70330 0.15828
v  0.05898 0.02107 0.10885
v  0.05898 -1.69587 0.06957
v  0.04209 0.02288 0.09532
v  0.04209 -1.69346 0.04765
v  0.04234 0.02664 -0.08743
v  0.04234 -1.67186 -0.10786
v  0.04254 -1.64745 -0.26202
v  0.04254 0.00737 -0.26418
v  -0.08372 0.02510 -0.15382
v  -0.08372 0.03015 -0.08694
v  -0.08372 0.03239 0.09521
v  -0.08386 -0.04385 -0.37022
v  -0.08361 -0.02849 0.38046
v  -0.08372 0.00480 0.25371
v  -0.09488 -1.73890 0.40246
v  -0.07745 -1.61756 -0.37042
v  -0.06289 -1.73890 0.39910
v  -0.00617 -1.61257 -0.36917
v  0.05867 -1.61090 -0.39792
v  0.05884 -1.64083 -0.29311
v  0.05884 0.00577 -0.27665
v  0.05867 -0.03796 -0.40246
v  -0.00385 -0.04396 -0.39672
v  -0.00617 -0.04394 -0.37064
v  -0.08372 0.00830 -0.26362
v  -0.08372 -0.02614 -0.37041
v  -0.00385 -1.60761 -0.39749
# 35 vertices

vn 0.82284 0.00056 0.56828
vn 0.83096 -0.00026 0.55633
vn 0.96259 -0.00013 0.27095
vn 0.95931 0.00039 0.28235
vn 0.99775 0.00009 0.06699
vn 0.99717 0.00050 0.07515
vn 0.99845 0.00037 0.05566
vn 0.99972 -0.00055 0.02384
vn 0.62604 0.01783 -0.77958
vn 0.79289 0.01692 -0.60913
vn 1.00000 -0.00004 0.00137
vn 1.00000 -0.00002 0.00161
vn 1.00000 -0.00002 0.00127
vn 1.00000 0.00000 0.00111
vn 0.04484 0.99311 -0.10825
vn 0.02744 0.99678 -0.07529
vn -1.00000 0.00000 -0.00000
vn -1.00000 0.00215 -0.00006
vn -1.00000 -0.00029 0.00034
vn -0.99995 -0.01017 -0.00177
vn 0.06014 0.98340 0.17118
vn 0.04908 0.98208 0.18196
vn 0.06491 0.98791 0.14080
vn 0.07529 0.99639 0.03922
vn 0.07539 0.99708 -0.01227
vn 0.02788 0.99940 0.02061
vn 0.06134 0.98208 0.17821
vn 0.02439 0.96538 0.25969
vn 0.03733 0.96652 0.25385
vn -0.00502 0.01290 0.99990
vn -0.99998 0.00659 0.00020
vn -0.99972 -0.00407 -0.02319
vn 0.23853 -0.96020 -0.14537
vn -0.08988 -0.51185 -0.85436
vn 0.10462 0.00823 0.99448
vn 0.38680 0.00091 0.92216
vn 0.07156 -0.98798 -0.13706
vn -0.13065 -0.98139 -0.14073
vn -0.57942 -0.81003 -0.09011
vn -0.03687 -0.99603 -0.08096
vn -0.07089 -0.99386 -0.08492
vn -0.18327 -0.97753 -0.10411
vn -0.35822 -0.92342 -0.13773
vn -0.09460 -0.95849 -0.26897
vn -0.13165 -0.95326 -0.27196
vn 0.88604 -0.00463 0.46358
vn 1.00000 0.00002 -0.00160
vn 1.00000 -0.00000 -0.00134
vn -0.11993 0.93779 -0.32583
vn -0.14681 0.93862 -0.31214
vn -0.65936 0.74947 -0.05952
vn 0.00471 0.89998 -0.43591
vn 0.21255 0.92998 -0.29994
vn -0.99997 0.00758 -0.00245
vn -0.99999 0.00376 -0.00058
vn 0.00664 0.98848 -0.15122
vn -0.00541 -0.01057 -0.99993
vn -0.00539 0.00011 -0.99999
vn 0.01756 -0.00093 -0.99985
vn -0.99605 -0.00008 -0.08881
vn -0.99664 0.00004 -0.08187
vn -0.05298 -0.98288 -0.17648
vn -0.00703 -0.00289 -0.99997
vn -0.09144 0.00049 -0.99581
vn 0.60769 0.00104 0.79417
# 65 vertex normals

g Door_L
f 3//1 2//1 1//1 
f 2//2 4//2 1//2 
f 1//3 4//3 5//3 
f 4//4 6//4 5//4 
f 5//5 6//5 7//5 
f 6//6 8//6 7//6 
f 7//7 8//7 9//7 
f 8//8 10//8 9//8 
f 9//9 10//9 11//9 
f 10//10 12//10 11//10 
f 11//11 12//11 13//11 
f 12//12 14//12 13//12 
f 15//13 13//13 14//13 
f 16//14 13//14 15//14 
f 16//15 17//15 13//15 
f 13//16 17//16 18//16 
f 18//17 17//17 19//17 
f 20//18 19//18 17//18 
f 20//19 21//19 19//19 
f 21//20 22//20 19//20 
f 5//21 19//21 22//21 
f 7//22 19//22 5//22 
f 9//23 19//23 7//23 
f 11//24 19//24 9//24 
f 18//25 19//25 11//25 
f 13//26 18//26 11//26 
f 5//27 22//27 1//27 
f 1//28 22//28 3//28 
f 22//29 21//29 3//29 
f 3//30 21//30 23//30 
f 20//31 23//31 21//31 
f 24//32 23//32 20//32 
f 24//33 2//33 23//33 
f 2//34 25//34 23//34 
f 25//35 3//35 23//35 
f 2//36 3//36 25//36 
f 24//37 26//37 2//37 
f 26//38 4//38 2//38 
f 26//39 12//39 4//39 
f 12//40 10//40 4//40 
f 10//41 8//41 4//41 
f 8//42 6//42 4//42 
f 26//43 15//43 12//43 
f 26//44 27//44 15//44 
f 27//45 28//45 15//45 
f 15//46 28//46 29//46 
f 28//47 27//47 29//47 
f 30//48 29//48 27//48 
f 30//49 31//49 29//49 
f 29//50 31//50 16//50 
f 31//51 32//51 16//51 
f 16//52 32//52 33//52 
f 32//53 34//53 33//53 
f 34//54 20//54 33//54 
f 33//55 20//55 17//55 
f 16//56 33//56 17//56 
f 34//57 32//57 20//57 
f 32//58 24//58 20//58 
f 32//59 26//59 24//59 
f 31//60 26//60 32//60 
f 35//61 26//61 31//61 
f 35//62 27//62 26//62 
f 30//63 27//63 35//63 
f 31//64 30//64 35//64 
f 15//65 29//65 16//65 
# 65 faces

